<svg xmlns="http://www.w3.org/2000/svg" viewBox="0 0 256 256"><path d="M224,216a12,12,0,0,1-12,12H44a12,12,0,0,1,0-24H212A12,12,0,0,1,224,216ZM92,148v12a16,16,0,0,0,16,16h40a16,16,0,0,0,16-16V148a16,16,0,0,0-16-16H108A16,16,0,0,0,92,148Zm144-20v40a12,12,0,0,1-12,12H192V148a32,32,0,0,0-32-32H136V96h24a12,12,0,0,1,12,12,8,8,0,0,0,16,0,28,28,0,0,0-28-28H136V64a12,12,0,0,1,12-12h12a28,28,0,0,1,28,28v8h28A12,12,0,0,1,236,128ZM20,128v40a12,12,0,0,0,12,12H64V148a32,32,0,0,1,32-32h24V96H96a12,12,0,0,1-12-12,8,8,0,0,0-16,0,28,28,0,0,0,28,28h24v12H96a32,32,0,0,0-32,32v32H32a12,12,0,0,1-12-12V128Z"/></svg>